<?xml version="1.0" encoding="utf-8"?>
<!-- Generator: Adobe Illustrator 24.2.3, SVG Export Plug-In . SVG Version: 6.00 Build 0)  -->
<svg xmlns="http://www.w3.org/2000/svg" width="487" height="130" viewBox="0 0 487 130">
<style type="text/css">
  .st2{fill: #CC8D6C}	
</style>
<g>
	<g>
		<g>
			<path class="st2" d="M56.75,47.64v0.84c12.53,2.77,14.1,4.46,14.34,14.46v7.47c0,4.34-0.48,7.35-1.57,9.16
				c-2.77,4.7-11.45,8.07-20.6,8.07c-10.6,0-20.24-4.1-26.63-11.33c-6.02-6.87-9.04-16.39-9.04-28.31
				c0-24.46,12.77-39.52,33.5-39.52c14.94,0,27.59,8.19,30.84,19.88l0.72,0.36l4.22-12.53C74.46,10.05,60,5.83,47.47,5.83
				C19.76,5.83,0,23.67,0,48.49C0,72.34,20.72,90.3,48.07,90.3c12.89,0,25.06-3.98,34.46-11.08V63.79
				c-0.12-12.05,0.36-13.25,7.11-15.3v-0.72c-4.94,0.12-9.28,0.24-17.71,0.24C64.94,48.01,61.09,47.88,56.75,47.64z"/>
			<path class="st2" d="M166.27,7.64v0.84c9.04,3.37,10,6.87,10.36,37.11v25.06L120,7.64c-3.49,0.36-5.78,0.48-9.88,0.48
				c-3.98,0-6.39-0.12-9.88-0.48v0.84c6.75,2.05,8.43,5.3,8.43,17.47v18.55c0.24,34.7-1.33,41.09-10.6,43.13v0.84
				c4.46-0.36,7.35-0.48,10.96-0.48c3.25,0,5.78,0.12,12.65,0.48v-0.84c-8.68-2.41-10.12-8.55-10-43.13V16.8l67.95,74.7V48.49
				c0-34.22,0.6-37.11,9.4-40V7.64c-4.7,0.36-7.83,0.48-12.53,0.48C172.18,8.12,169.77,8,166.27,7.64z"/>
			<path class="st2" d="M353.99,8.49c15.66,0,27.35,7.47,30.84,19.64l0.84,0.24l4.34-11.57c-8.31-6.87-21.45-10.96-35.54-10.96
				c-15.06,0-26.99,4.58-35.91,13.62c-7.71,7.83-11.81,17.83-11.81,28.68c0,12.53,5.9,24.7,15.54,31.81
				c8.8,6.51,21.09,10.36,33.37,10.36c13.01,0,24.94-3.74,34.34-10.84l-2.53-10.36l-0.84,0.24c-2.05,4.58-4.22,7.47-7.35,10
				c-6.27,5.3-14.7,8.31-23.37,8.31c-10,0-19.04-3.74-25.54-10.6c-6.87-7.11-10.36-16.87-10.36-29.04
				C320.01,24.15,333.51,8.49,353.99,8.49z"/>
			<path class="st2" d="M486.28,70.66c-8.07,10.96-20.48,14.94-46.51,14.94c-9.16,0-11.81-0.36-13.86-1.93
				c-2.53-2.05-3.37-9.16-3.37-27.83V47.4h16.51c21.33,0,26.15,1.69,28.92,9.64h0.84V34.87h-0.84c-2.77,7.95-7.95,9.76-28.55,9.88
				h-16.87V10.53h20c20.36,0.36,28.68,3.37,36.87,13.62l0.84-0.36l-4.34-15.9h-69.76v0.84c5.18,1.33,6.39,4.58,6.39,18.07v13.98
				c0,41.81-0.48,44.34-8.8,46.87v0.84c2.53-0.12,6.63-0.24,13.74-0.24h64.1l5.42-17.23L486.28,70.66z"/>
			<g>
				<path class="st2" d="M263.31,7.97c-0.42-1.76-2-3.07-3.88-3.07c-2.21,0-4,1.79-4,4s1.79,4,4,4c1.06,0,2.03-0.42,2.74-1.1
					c3.15,1.8,5.94,4.22,8.34,7.24c5.64,7.04,8.23,16.27,8.23,29.25c0,24.28-12.34,39.33-32.2,39.33c-9.99,0-18.22-3.88-23.98-11.17
					c-5.52-7.04-8.23-16.39-8.23-28.77c0-12.26,2.7-21.73,8.23-28.65c2.41-3.03,8.31-7.25,8.31-7.25s1.69,1.11,2.75,1.11
					c2.21,0,4-1.79,4-4s-1.79-4-4-4c-1.91,0-3.5,1.33-3.9,3.12c-16.9,6.02-28.32,21.13-28.32,39.67c0,24.4,19.27,42.61,45.13,42.61
					c25.5,0,45.13-18.21,45.13-42C291.67,29.08,280.42,13.95,263.31,7.97z"/>
				<path class="st2" d="M246.53,0c-3.56,0-6.45,2.89-6.45,6.45c0,3.56,2.89,6.45,6.45,6.45c3.56,0,6.45-2.89,6.45-6.45
					C252.97,2.89,250.08,0,246.53,0z M246.53,10.45c-2.21,0-4-1.79-4-4s1.79-4,4-4c2.21,0,4,1.79,4,4S248.73,10.45,246.53,10.45z"/>
			</g>
		</g>
		<g>
			<g>
				<path class="st2" d="M175.24,117.49v8.69c0,2.77-1.72,4.44-4.5,4.44c-2.03,0-3.43-1.03-4.1-2.37c-0.08-0.15-0.08-0.27,0.12-0.36
					l1.01-0.48c0.15-0.07,0.28-0.02,0.36,0.12c0.46,0.8,1.15,1.57,2.58,1.57c1.82,0,2.74-0.99,2.74-3.1v-8.52
					c0-0.16,0.11-0.27,0.27-0.27h1.24C175.14,117.22,175.24,117.33,175.24,117.49z"/>
				<path class="st2" d="M198.57,129.18v0.97c0,0.16-0.11,0.27-0.27,0.27h-8.78h-0.73c-0.15,0-0.27-0.12-0.27-0.27v-12.66
					c0-0.15,0.12-0.27,0.27-0.27h1.24h8.05c0.16,0,0.27,0.11,0.27,0.27v0.97c0,0.16-0.11,0.27-0.27,0.27h-7.78v4.13h6.92
					c0.16,0,0.27,0.11,0.27,0.26v0.98c0,0.16-0.11,0.27-0.27,0.27h-6.92v4.52h8C198.46,128.91,198.57,129.02,198.57,129.18z"/>
				<path class="st2" d="M228.58,117.54l-4.56,12.9c-0.04,0.12-0.15,0.2-0.3,0.2h-0.35c-0.15,0-0.25-0.07-0.31-0.2l-3.42-9.05
					l-3.42,9.05c-0.05,0.13-0.16,0.2-0.3,0.2h-0.35c-0.15,0-0.25-0.08-0.3-0.2l-4.56-12.9c-0.07-0.2,0.01-0.33,0.2-0.33h1.41
					c0.15,0,0.25,0.05,0.31,0.2l3.25,9.77l3.31-8.95c0.05-0.12,0.15-0.2,0.31-0.2h0.3c0.15,0,0.25,0.07,0.3,0.2l3.4,8.95l3.18-9.77
					c0.05-0.15,0.16-0.2,0.31-0.2h1.39C228.57,117.22,228.65,117.34,228.58,117.54z"/>
				<path class="st2" d="M251.08,129.18v0.97c0,0.16-0.11,0.27-0.27,0.27h-8.78h-0.73c-0.15,0-0.27-0.12-0.27-0.27v-12.66
					c0-0.15,0.12-0.27,0.27-0.27h1.24h8.05c0.16,0,0.27,0.11,0.27,0.27v0.97c0,0.16-0.11,0.27-0.27,0.27h-7.78v4.13h6.92
					c0.16,0,0.27,0.11,0.27,0.26v0.98c0,0.16-0.11,0.27-0.27,0.27h-6.92v4.52h8C250.97,128.91,251.08,129.02,251.08,129.18z"/>
				<path class="st2" d="M273.49,129.18v0.97c0,0.16-0.11,0.27-0.27,0.27h-8.07h-0.73c-0.15,0-0.27-0.12-0.27-0.27v-12.66
					c0-0.15,0.12-0.27,0.27-0.27h1.24c0.15,0,0.27,0.12,0.27,0.27v11.42h7.29C273.38,128.91,273.49,129.02,273.49,129.18z"/>
				<path class="st2" d="M296.18,129.89c0.18,0.27,0.02,0.54-0.29,0.54h-1.27c-0.08,0-0.16-0.05-0.2-0.12l-3.19-4.82h-0.05h-3.38
					v4.66c0,0.15-0.12,0.27-0.27,0.27h-1.24c-0.15,0-0.27-0.12-0.27-0.27v-12.66c0-0.15,0.12-0.27,0.27-0.27h1.24h3.65
					c3.42,0,5.11,1.8,5.11,4.13c0,1.86-1.06,3.37-3.21,3.92L296.18,129.89z M290.82,123.97c2.69,0,3.59-1.11,3.59-2.62
					c0-1.5-0.9-2.62-3.59-2.62h-3.02v5.24H290.82z"/>
				<path class="st2" d="M320.37,117.54l-5.18,8.24v4.38c0,0.15-0.12,0.27-0.27,0.27h-1.24c-0.14,0-0.27-0.12-0.27-0.27v-4.31
					l-5.2-8.31c-0.11-0.18,0.01-0.32,0.2-0.32h1.5c0.15,0,0.23,0.06,0.31,0.2l4.11,6.8l4.16-6.8c0.07-0.12,0.17-0.2,0.31-0.2h1.35
					C320.34,117.22,320.49,117.36,320.37,117.54z"/>
			</g>
		</g>
	</g>
</g>
</svg>
